<?xml version="1.0"?>
<svg xmlns="http://www.w3.org/2000/svg" xmlns:xlink="http://www.w3.org/1999/xlink" version="1.1" id="Layer_1" x="0px" y="0px" viewBox="0 0 490.4 490.4" style="enable-background:new 0 0 490.4 490.4;" xml:space="preserve" width="512px" height="512px" class=""><g><rect x="141.2" style="fill:#B668D6" width="216" height="24" data-original="#0E75AF" class="active-path" data-old_color="#b668d6"/><polyline style="fill:#9B59B6" points="357.2,24 357.2,0 141.2,0 " data-original="#04547C" class="" data-old_color="#9b59b6"/><rect x="141.2" y="48" style="fill:#B668D6" width="216" height="32" data-original="#0E75AF" class="active-path" data-old_color="#b668d6"/><polyline style="fill:#9B59B6" points="357.2,80 357.2,48 141.2,48 " data-original="#04547C" class="" data-old_color="#9b59b6"/><polygon style="fill:#B668D6" points="357.2,208 357.2,96 141.2,96 141.2,208 98.8,208 245.2,354.4 391.6,208 " data-original="#0E75AF" class="active-path" data-old_color="#b668d6"/><polyline style="fill:#9B59B6" points="245.2,354.4 391.6,208 357.2,208 357.2,96 141.2,96 " data-original="#04547C" class="" data-old_color="#9b59b6"/><polygon style="fill:#0DD396;" points="245.2,408 181.2,344 98.8,344 245.2,490.4 391.6,344 309.2,344 " data-original="#0DD396" class=""/><polyline style="fill:#23C181" points="245.2,488.8 391.6,344 309.2,344 245.2,407.2 " data-original="#23C181" class=""/></g> </svg>
