<?xml version="1.0"?>
<svg xmlns="http://www.w3.org/2000/svg" xmlns:xlink="http://www.w3.org/1999/xlink" version="1.1" id="Layer_1" x="0px" y="0px" viewBox="0 0 511.998 511.998" style="enable-background:new 0 0 511.998 511.998;" xml:space="preserve" width="512px" height="512px" class=""><g><path style="fill:#9B59B6" d="M255.998,511.998c141.001,0,256-115.001,256-256S396.999,0,255.998,0C114.999,0,0,114.999,0,255.998  S114.999,511.998,255.998,511.998z" data-original="#1A91A1" class="" data-old_color="#9b59b6"/><path style="fill:#5FCF80" d="M470.26,51.26L114.955,173.522l108.228,21.587L470.258,51.26H470.26z" data-original="#FFBA1B" class="" data-old_color="#5fcf80"/><path style="fill:#5FCF80" d="M114.955,173.522l108.228,21.587l71.829-41.819L114.955,173.522z" data-original="#20D0C2" class="" data-old_color="#5fcf80"/><path style="fill:#4AA464" d="M223.183,195.109l16.765,127.578L470.258,51.26L223.183,195.109z" data-original="#F5A209" class="" data-old_color="#4aa464"/><path style="fill:#4AA464" d="M223.183,195.109l16.765,127.578l102.937-121.314l-17.769-28.952l-35.202,29.386l5.1-48.519h-0.002  l-71.829,41.819V195.109z" data-original="#15BDB1" class="active-path" data-old_color="#4aa464"/><path style="fill:#FECD0D;" d="M470.26,51.26L262.05,225.069l-22.099,97.619L470.26,51.26z" data-original="#FECD0D"/><path style="fill:#5FCF80" d="M289.915,201.808l-27.865,23.261l-22.099,97.619l102.937-121.314l-17.769-28.952l-35.202,29.386  v-0.002L289.915,201.808z" data-original="#20D0C2" class="" data-old_color="#5fcf80"/><path style="fill:#5FCF80" d="M399.433,293.524L470.26,51.26L262.05,225.069l137.385,68.455H399.433z" data-original="#FFBA1B" class="" data-old_color="#5fcf80"/><path style="fill:#5FCF80" d="M289.758,201.808l-27.865,23.261l137.385,68.453l-74.314-121.1l-35.207,29.388V201.808z" data-original="#20D0C2" class="" data-old_color="#5fcf80"/><path style="fill:#FFFFFF;" d="M46.103,358.621l143.869-140.161l6.365,8.365L46.103,358.621z M214.836,456.721L214.836,456.721  l130.323-149.789l9.172,4.178L214.836,456.721z M106.123,442.021L106.123,442.021l121.75-109.042l-6.65-5.697L106.123,442.021z" data-original="#FFFFFF"/></g> </svg>
